<svg xmlns="http://www.w3.org/2000/svg" width="54" height="78" viewBox="0 0 54 78">
  <g id="Polygon_2" data-name="Polygon 2" transform="translate(54 78) rotate(180)" fill="none">
    <path d="M19.44,21.84a8,8,0,0,1,15.12,0L50.325,67.383A8,8,0,0,1,42.765,78H11.235a8,8,0,0,1-7.56-10.617Z" stroke="none"/>
    <path d="M 27 18.45656585693359 C 24.93460083007813 18.45656585693359 22.3604793548584 19.51717376708984 21.330078125 22.49390411376953 L 5.565040588378906 68.03733825683594 C 4.922000885009766 69.89502716064453 5.207168579101563 71.87887573242188 6.347431182861328 73.480224609375 C 7.487689971923828 75.08157348632813 9.269130706787109 76 11.23495864868164 76 L 42.76502990722656 76 C 44.73086929321289 76 46.51231002807617 75.08157348632813 47.65256881713867 73.480224609375 C 48.79283142089844 71.87887573242188 49.0779914855957 69.89502716064453 48.43495178222656 68.03733825683594 L 32.669921875 22.49390411376953 C 31.6395092010498 19.51717376708984 29.06539916992188 18.45656585693359 27 18.45656585693359 M 26.99999618530273 16.45656585693359 C 30.15881156921387 16.45656585693359 33.31763076782227 18.25093841552734 34.55989074707031 21.83968353271484 L 50.32492065429688 67.38311767578125 C 52.12377166748047 72.57977294921875 48.26424026489258 78 42.76502990722656 78 L 11.23495864868164 78 C 5.735759735107422 78 1.876228332519531 72.57977294921875 3.675071716308594 67.38311767578125 L 19.44010925292969 21.83968353271484 C 20.68236541748047 18.25093841552734 23.8411808013916 16.45656585693359 26.99999618530273 16.45656585693359 Z" stroke="none" fill="#4e89ae"/>
  </g>
</svg>
